<svg xmlns="http://www.w3.org/2000/svg" viewBox="0 0 800 800" width="800" height="800">
  <defs>
    <linearGradient id="brand" x1="0" y1="0" x2="0" y2="1">
      <stop offset="0%" stop-color="#aa66ff"/>
      <stop offset="100%" stop-color="#8a4adb"/>
    </linearGradient>
  </defs>
  <g transform="translate(0,800) scale(0.1,-0.1)" fill="url(#brand)" stroke="none">
    <path d="M2296 7492 c-276 -722 -398 -954 -615 -1173 -218 -218 -459 -344
-1206 -629 -132 -51 -243 -95 -247 -98 -3 -4 16 -56 44 -117 337 -743 445
-1048 478 -1355 24 -219 -23 -485 -143 -807 -46 -121 -204 -493 -320 -753 -36
-80 -62 -148 -59 -151 4 -4 133 -55 286 -114 720 -276 947 -396 1167 -614 167
-167 288 -367 434 -716 60 -145 225 -565 270 -690 10 -27 20 -51 21 -53 1 -2
78 35 172 82 581 291 896 422 1144 478 148 33 408 33 556 0 248 -56 563 -187
1144 -478 94 -47 171 -84 172 -82 1 2 28 73 60 158 298 794 443 1079 665 1301
218 217 434 331 1166 614 160 62 289 117 288 121 -1 5 -78 167 -171 359 -327
676 -397 876 -409 1171 -14 338 68 586 442 1351 79 161 140 295 137 297 -4 2
-115 45 -247 96 -749 286 -988 411 -1206 629 -221 222 -369 511 -665 1301 -32
85 -58 156 -59 158 -1 1 -139 -65 -306 -147 -733 -358 -975 -441 -1289 -441
-314 0 -558 83 -1279 436 -173 85 -315 154 -315 154 -1 0 -50 -130 -110 -288z
m1086 -786 c172 -75 291 -115 423 -141 154 -31 236 -31 390 0 201 41 356 103
803 321 175 85 275 129 277 121 88 -248 248 -642 317 -782 180 -360 358 -520
788 -705 105 -45 513 -204 623 -243 15 -6 5 -31 -77 -194 -213 -427 -320 -683
-362 -873 -24 -106 -24 -301 -1 -410 44 -201 121 -391 333 -821 106 -214 121
-251 106 -256 -98 -35 -487 -187 -601 -234 -431 -178 -625 -348 -800 -698 -73
-144 -220 -506 -324 -794 -6 -15 -25 -8 -159 59 -625 313 -864 398 -1118 398
-253 0 -491 -84 -1103 -390 -147 -74 -168 -82 -174 -67 -38 106 -201 522 -233
599 -211 496 -392 680 -863 881 -102 43 -525 209 -629 246 -15 5 -9 23 43 139
257 564 347 821 367 1046 24 280 -53 539 -366 1230 -40 87 -57 135 -49 137
247 87 644 248 782 317 320 160 473 313 633 633 69 140 229 534 317 782 2 8
102 -36 277 -121 150 -74 321 -155 380 -180z"/>
    <path d="M3010 6320 c0 -19 -172 -455 -220 -557 -100 -212 -210 -348 -363
-447 -118 -77 -194 -113 -468 -221 -134 -53 -254 -100 -267 -105 -26 -11 -33
11 68 -215 235 -528 276 -721 211 -990 -38 -153 -98 -307 -287 -733 -14 -31
-13 -33 8 -42 13 -5 133 -52 268 -105 442 -174 590 -272 724 -477 77 -119 112
-194 221 -469 53 -134 100 -254 105 -267 10 -22 10 -22 112 29 329 165 565
262 715 294 87 19 239 19 326 0 150 -31 389 -130 725 -299 l92 -46 10 22 c5
13 52 133 105 267 108 273 144 349 221 469 134 205 282 303 724 477 135 53
255 100 267 105 21 9 20 14 -74 207 -216 447 -263 587 -263 783 0 199 72 405
300 859 60 121 60 121 38 131 -13 5 -133 52 -267 105 -274 108 -350 144 -468
221 -104 67 -190 153 -257 257 -77 119 -113 195 -221 468 -53 134 -100 254
-105 266 -9 21 -16 19 -242 -91 -247 -120 -364 -170 -506 -213 -78 -24 -102
-27 -242 -27 -141 0 -163 3 -245 28 -140 42 -251 89 -504 212 -129 63 -236
114 -238 114 -1 0 -3 -5 -3 -10z m540 -748 c232 -113 307 -135 445 -136 157
-1 230 23 559 185 88 44 161 79 163 79 1 0 3 -5 3 -10 0 -18 146 -382 180
-451 111 -218 210 -294 580 -440 113 -45 207 -83 209 -85 2 -2 -39 -95 -92
-206 -53 -112 -111 -246 -129 -298 -29 -86 -32 -106 -32 -210 0 -104 3 -124
32 -208 17 -51 75 -185 129 -297 53 -113 94 -207 91 -210 -3 -3 -81 -35 -173
-70 -385 -149 -479 -215 -589 -409 -42 -74 -206 -469 -206 -496 0 -7 -3 -10
-7 -8 -5 2 -48 24 -98 49 -282 145 -492 219 -615 219 -123 0 -328 -73 -629
-225 l-85 -42 -78 200 c-181 465 -244 526 -722 711 -93 36 -171 68 -174 71 -7
7 -6 9 92 233 190 435 188 545 -18 1007 -42 94 -76 175 -76 180 0 6 94 48 208
93 374 148 471 222 582 441 34 68 180 433 180 450 0 12 39 -5 270 -117z"/>
  </g>
</svg>
